<?xml version="1.0" encoding="UTF-8" standalone="no"?>
<svg
   viewBox="0 0.587 494.972 413.945"
   version="1.1"
   id="svg5"
   sodipodi:docname="logggo.svg"
   inkscape:version="1.3.2 (091e20e, 2023-11-25)"
   xmlns:inkscape="http://www.inkscape.org/namespaces/inkscape"
   xmlns:sodipodi="http://sodipodi.sourceforge.net/DTD/sodipodi-0.dtd"
   xmlns="http://www.w3.org/2000/svg"
   xmlns:svg="http://www.w3.org/2000/svg">
  <sodipodi:namedview
     id="namedview5"
     pagecolor="#ffffff"
     bordercolor="#000000"
     borderopacity="0.25"
     inkscape:showpageshadow="2"
     inkscape:pageopacity="0.0"
     inkscape:pagecheckerboard="0"
     inkscape:deskcolor="#d1d1d1"
     inkscape:zoom="0.45235477"
     inkscape:cx="-63.003646"
     inkscape:cy="23.21187"
     inkscape:window-width="1920"
     inkscape:window-height="949"
     inkscape:window-x="1920"
     inkscape:window-y="27"
     inkscape:window-maximized="1"
     inkscape:current-layer="svg5" />
  <defs
     id="defs1" />
  <path
     class="st1"
     d="M 209.353 407.486 C 269.933 407.486 325.261 379.925 361.917 334.762 C 367.339 328.081 361.427 318.321 353.046 319.916 C 257.758 338.064 170.251 265.003 170.251 168.813 C 170.251 113.404 199.913 62.452 248.121 35.018 C 255.552 30.789 253.683 19.522 245.239 17.963 C 233.402 15.78 221.39 14.681 209.353 14.679 C 100.941 14.679 12.95 102.532 12.95 211.083 C 12.95 319.495 100.803 407.486 209.353 407.486 Z"
     id="path1"
     style="fill:#7600c3;fill-opacity:1" />
  <g
     transform="matrix(0.19536555,-0.08235951,0.08235951,0.19536555,191.47,189.14735)"
     id="g5"
     style="fill:#7711ff;fill-opacity:1">
    <g
       id="g4"
       style="fill:#7711ff;fill-opacity:1">
      <g
         transform="translate(660.61987,-430.64142)"
         id="g2"
         style="fill:#7711ff;fill-opacity:1">
        <path
           class="st0"
           d="m 331.9,56.7 32.6,79.8 c 2.5,6.2 8,10.1 14.6,10.6 l 86,6.4 c 14.2,1 25.7,10.1 30.1,23.6 4.4,13.5 0.4,27.6 -10.5,36.8 l -65.9,55.7 c -5.1,4.3 -7.2,10.7 -5.6,17.2 l 20.5,83.8 c 3.4,13.8 -1.6,27.6 -13.2,35.9 -11.5,8.4 -26.1,8.9 -38.2,1.4 l -82.4,-51 -82.4,51 c -12.1,7.5 -26.7,7 -38.2,-1.4 -11.5,-8.4 -16.5,-22.1 -13.2,-35.9 l 20.5,-83.8 c 1.6,-6.5 -0.5,-12.9 -5.6,-17.2 l -65.9,-55.7 c -10.9,-9.2 -14.9,-23.3 -10.5,-36.8 4.4,-13.5 15.9,-22.6 30.1,-23.6 l 86,-6.4 c 6.7,-0.5 12.1,-4.4 14.6,-10.6 l 32.6,-79.8 c 5.4,-13.2 17.5,-21.3 31.8,-21.3 14.7,-0.1 26.8,8.1 32.2,21.3 z"
           style="clip-rule:evenodd;fill:#7711ff;fill-opacity:1;fill-rule:evenodd"
           id="path2" />
      </g>
      <g
         transform="translate(627.2677,362.79053)"
         id="g3"
         style="fill:#7711ff;fill-opacity:1">
        <path
           class="st0"
           d="m 331.9,56.7 32.6,79.8 c 2.5,6.2 8,10.1 14.6,10.6 l 86,6.4 c 14.2,1 25.7,10.1 30.1,23.6 4.4,13.5 0.4,27.6 -10.5,36.8 l -65.9,55.7 c -5.1,4.3 -7.2,10.7 -5.6,17.2 l 20.5,83.8 c 3.4,13.8 -1.6,27.6 -13.2,35.9 -11.5,8.4 -26.1,8.9 -38.2,1.4 l -82.4,-51 -82.4,51 c -12.1,7.5 -26.7,7 -38.2,-1.4 -11.5,-8.4 -16.5,-22.1 -13.2,-35.9 l 20.5,-83.8 c 1.6,-6.5 -0.5,-12.9 -5.6,-17.2 l -65.9,-55.7 c -10.9,-9.2 -14.9,-23.3 -10.5,-36.8 4.4,-13.5 15.9,-22.6 30.1,-23.6 l 86,-6.4 c 6.7,-0.5 12.1,-4.4 14.6,-10.6 l 32.6,-79.8 c 5.4,-13.2 17.5,-21.3 31.8,-21.3 14.7,-0.1 26.8,8.1 32.2,21.3 z"
           style="clip-rule:evenodd;fill:#7711ff;fill-opacity:1;fill-rule:evenodd"
           id="path3" />
      </g>
      <path
         class="st0"
         d="m 331.9,56.7 32.6,79.8 c 2.5,6.2 8,10.1 14.6,10.6 l 86,6.4 c 14.2,1 25.7,10.1 30.1,23.6 4.4,13.5 0.4,27.6 -10.5,36.8 l -65.9,55.7 c -5.1,4.3 -7.2,10.7 -5.6,17.2 l 20.5,83.8 c 3.4,13.8 -1.6,27.6 -13.2,35.9 -11.5,8.4 -26.1,8.9 -38.2,1.4 l -82.4,-51 -82.4,51 c -12.1,7.5 -26.7,7 -38.2,-1.4 -11.5,-8.4 -16.5,-22.1 -13.2,-35.9 l 20.5,-83.8 c 1.6,-6.5 -0.5,-12.9 -5.6,-17.2 l -65.9,-55.7 c -10.9,-9.2 -14.9,-23.3 -10.5,-36.8 4.4,-13.5 15.9,-22.6 30.1,-23.6 l 86,-6.4 c 6.7,-0.5 12.1,-4.4 14.6,-10.6 l 32.6,-79.8 c 5.4,-13.2 17.5,-21.3 31.8,-21.3 14.7,-0.1 26.8,8.1 32.2,21.3 z"
         style="clip-rule:evenodd;fill:#7711ff;fill-opacity:1;fill-rule:evenodd"
         id="path4" />
    </g>
  </g>
</svg>

<path
   d="m 269.46298,53.467041 c 4.0647,2.086334 5.73714,3.417792 7.63916,7.630615 0.44786,1.490136 0.87123,2.98777 1.2749,4.490479 0.24127,0.826002 0.48253,1.652004 0.73111,2.503036 0.80737,2.786053 1.58144,5.580207 2.35483,8.37587 0.58141,2.046189 1.16447,4.091912 1.74902,6.137207 2.21249,7.770722 4.41412,15.544695 6.56836,23.331782 3.89715,14.05784 8.19786,27.44162 14.68262,40.53101 0.45657,0.92674 0.45657,0.92674 0.92236,1.87221 6.06179,12.22228 13.82865,23.06014 23.12451,33.02232 1.59374,1.71804 3.06772,3.45412 4.51563,5.29297 21.98422,25.36641 55.86669,37.25306 87.0625,46 2.43265,0.6908 4.86494,1.38285 7.29687,2.07617 1.18471,0.3375 2.36942,0.67501 3.59003,1.02274 4.50469,1.28552 9.00777,2.57659 13.51068,3.86831 2.68685,0.76279 5.37893,1.50176 8.0741,2.23444 1.43418,0.4071 2.86813,0.81506 4.30176,1.22412 1.17997,0.32396 2.35995,0.64792 3.57568,0.98169 3.97653,1.84645 5.48998,3.85099 8.02588,7.40503 0.66406,2.125 0.66406,2.125 0.625,4 0.0129,0.61875 0.0258,1.2375 0.0391,1.875 -1.22462,3.9188 -3.80529,7.14857 -7.43536,9.05548 -2.11819,0.76706 -4.23818,1.39314 -6.41229,1.98358 -0.82149,0.24127 -1.64298,0.48253 -2.48937,0.73111 -2.76988,0.80684 -5.54758,1.58166 -8.32704,2.35483 -2.04476,0.58185 -4.08919,1.1649 -6.1333,1.74902 -7.77224,2.21174 -15.5474,4.41379 -23.33569,6.56836 -14.05791,3.89715 -27.4416,8.19795 -40.53105,14.68262 -0.61765,0.30424 -1.23529,0.60849 -1.87166,0.92195 -29.08078,14.4212 -51.88017,38.13064 -67.00334,66.64055 -0.42789,0.80099 -0.85578,1.60198 -1.29663,2.42725 -6.41604,12.50337 -10.40813,25.66205 -14.17603,39.14306 -0.19083,0.68253 -0.38167,1.36505 -0.57829,2.06826 -1.79515,6.4317 -3.57513,12.86753 -5.33601,19.3087 -0.97292,3.5559 -1.96082,7.10735 -2.95801,10.65652 -0.37291,1.33873 -0.74012,2.67907 -1.10124,4.02103 -3.49655,12.98564 -3.49655,12.98564 -8.67879,17.81268 -3.1807,1.59035 -6.5833,1.78937 -10,1 -5.47493,-3.73923 -7.20311,-6.88354 -8.91406,-13.18359 -0.24127,-0.82149 -0.48253,-1.64298 -0.73111,-2.48937 -0.80684,-2.76988 -1.58166,-5.54758 -2.35483,-8.32704 -0.58185,-2.04476 -1.1649,-4.08919 -1.74902,-6.1333 -2.21174,-7.77224 -4.41379,-15.5474 -6.56836,-23.33569 -3.89715,-14.05784 -8.19786,-27.44162 -14.68262,-40.53101 -0.30438,-0.61783 -0.60876,-1.23566 -0.92236,-1.87221 -6.06179,-12.22228 -13.82865,-23.06014 -23.12452,-33.02232 -1.59373,-1.71804 -3.06771,-3.45412 -4.51562,-5.29297 -15.61057,-18.0122 -39.79056,-31.10232 -62.125,-38.51953 -0.75614,-0.25156 -1.51227,-0.50313 -2.29132,-0.76232 -7.21538,-2.35072 -14.50838,-4.40587 -21.81805,-6.44081 -1.81979,-0.50741 -1.81979,-0.50741 -3.67634,-1.02508 -5.0432,-1.40298 -10.086851,-2.80396 -15.137146,-4.18122 -3.732821,-1.0216 -7.459874,-2.06233 -11.186523,-3.1062 -1.137497,-0.30535 -2.274994,-0.6107 -3.44696,-0.9253 -6.060661,-1.71443 -10.3515,-3.27671 -14.756165,-7.85204 -1.590351,-3.1807 -1.789374,-6.5833 -1,-10 3.739229,-5.47493 6.88354,-7.20311 13.183594,-8.91406 0.82149,-0.24127 1.64298,-0.48253 2.489364,-0.73111 2.769885,-0.80684 5.547584,-1.58166 8.327042,-2.35483 2.044762,-0.58185 4.089186,-1.1649 6.133301,-1.74902 7.772233,-2.21174 15.547403,-4.41379 23.335693,-6.56836 14.05784,-3.89715 27.44162,-8.19786 40.53101,-14.68262 0.92674,-0.45657 0.92674,-0.45657 1.87221,-0.92236 12.22302,-6.06216 23.07562,-13.82917 33.03013,-23.13623 2.09766,-1.94141 2.09766,-1.94141 5.16016,-4.31641 4.55542,-4.0708 8.18048,-8.82298 11.9375,-13.625 1.13695,-1.43086 1.13695,-1.43086 2.29687,-2.89063 10.63028,-13.70939 18.93789,-29.32102 24.41016,-45.79296 0.25156,-0.75593 0.50313,-1.51186 0.76232,-2.2907 2.35459,-7.22767 4.40728,-14.53433 6.44081,-21.85774 0.50741,-1.823329 0.50741,-1.823329 1.02508,-3.683502 1.40356,-5.054093 2.80565,-10.108468 4.18122,-15.170258 1.02041,-3.740577 2.06155,-7.474869 3.1062,-11.20874 0.30535,-1.142658 0.6107,-2.285317 0.9253,-3.462601 1.66318,-5.879905 2.90161,-9.900574 7.85204,-13.642868 3.1665,-1.583248 6.57458,-1.643742 10,-1 z"
   fill="#ffffff"
   id="path1" /></svg>
