<?xml version="1.0" encoding="UTF-8"?>
<!DOCTYPE svg PUBLIC "-//W3C//DTD SVG 1.1//EN" "http://www.w3.org/Graphics/SVG/1.1/DTD/svg11.dtd">
<svg xmlns="http://www.w3.org/2000/svg" version="1.1" width="512px" height="512px" style="shape-rendering:geometricPrecision; text-rendering:geometricPrecision; image-rendering:optimizeQuality; fill-rule:evenodd; clip-rule:evenodd" xmlns:xlink="http://www.w3.org/1999/xlink">
<g><path style="opacity:0.985" fill="#fefffe" d="M 251.5,53.5 C 256.677,52.7031 261.177,54.0364 265,57.5C 271.734,79.0377 278.068,100.704 284,122.5C 301.5,174.667 336.333,209.5 388.5,227C 409.545,232.845 430.545,238.845 451.5,245C 458.414,248.77 460.247,254.27 457,261.5C 455.457,263.378 453.624,264.878 451.5,266C 424.913,273.229 398.58,281.229 372.5,290C 330.84,308.806 302.007,339.639 286,382.5C 279.178,405.455 272.511,428.455 266,451.5C 262.23,458.414 256.73,460.247 249.5,457C 247.622,455.457 246.122,453.624 245,451.5C 237.771,424.913 229.771,398.58 221,372.5C 201.814,331.305 170.98,302.472 128.5,286C 105.545,279.178 82.5451,272.511 59.5,266C 52.5864,262.23 50.7531,256.73 54,249.5C 55.5429,247.622 57.3762,246.122 59.5,245C 82.5451,238.489 105.545,231.822 128.5,225C 177.65,206.517 210.483,172.35 227,122.5C 232.845,101.455 238.845,80.4552 245,59.5C 246.494,56.6865 248.66,54.6865 251.5,53.5 Z"/></g>
</svg>
